HIERARCHY
ROOT Root
{
  OFFSET 0.0 0.0 0.0
  CHANNELS 6 Xposition Yposition Zposition Zrotation Yrotation Xrotation
  JOINT Hips
  {
    OFFSET 0.0 100.0 0.0
    CHANNELS 6 Xposition Yposition Zposition Zrotation Yrotation Xrotation
    JOINT Spine1
    {
      OFFSET 5.003913 -0.037094 -0.013727
      CHANNELS 3 Zrotation Yrotation Xrotation
      JOINT Spine2
      {
        OFFSET 7.125363 -1e-06 0.0
        CHANNELS 3 Zrotation Yrotation Xrotation
        JOINT Chest
        {
          OFFSET 7.594027 1e-06 0.0
          CHANNELS 3 Zrotation Yrotation Xrotation
          JOINT Neck1
          {
            OFFSET 26.313086 -0.460272 -0.181672
            CHANNELS 3 Zrotation Yrotation Xrotation
            JOINT Neck2
            {
              OFFSET 8.045911 0.0 0.0
              CHANNELS 3 Zrotation Yrotation Xrotation
              JOINT Head
              {
                OFFSET 6.432774 0.0 0.0
                CHANNELS 3 Zrotation Yrotation Xrotation
                JOINT HeadEnd
                {
                  OFFSET 16.169773 0.06451 0.00362
                  CHANNELS 3 Zrotation Yrotation Xrotation
                }
                JOINT Jaw
                {
                  OFFSET 0.108741 3.12938 0.002639
                  CHANNELS 3 Zrotation Yrotation Xrotation
                }
                JOINT LeftEye
                {
                  OFFSET 4.45173 8.166359 3.206392
                  CHANNELS 3 Zrotation Yrotation Xrotation
                }
                JOINT RightEye
                {
                  OFFSET 4.436895 8.135758 -3.222429
                  CHANNELS 3 Zrotation Yrotation Xrotation
                }
              }
            }
          }
          JOINT LeftShoulder
          {
            OFFSET 23.218927 5.195579 1.621656
            CHANNELS 3 Zrotation Yrotation Xrotation
            JOINT LeftArm
            {
              OFFSET 15.902118 2e-06 -2e-06
              CHANNELS 3 Zrotation Yrotation Xrotation
              JOINT LeftForeArm
              {
                OFFSET 28.739307 0.0 -1e-06
                CHANNELS 3 Zrotation Yrotation Xrotation
                JOINT LeftHand
                {
                  OFFSET 27.093981 -4e-06 0.0
                  CHANNELS 3 Zrotation Yrotation Xrotation
                  JOINT LeftHandThumb1
                  {
                    OFFSET 2.276781 3.380274 0.83384
                    CHANNELS 3 Zrotation Yrotation Xrotation
                    JOINT LeftHandThumb2
                    {
                      OFFSET 4.705309 -1e-06 -1e-06
                      CHANNELS 3 Zrotation Yrotation Xrotation
                      JOINT LeftHandThumb3
                      {
                        OFFSET 2.798515 0.0 3e-06
                        CHANNELS 3 Zrotation Yrotation Xrotation
                        JOINT LeftHandThumbEnd
                        {
                          OFFSET 3.180793 4e-06 -4e-06
                          CHANNELS 3 Zrotation Yrotation Xrotation
                        }
                      }
                    }
                  }
                  JOINT LeftHandIndex1
                  {
                    OFFSET 3.247786 2.352677 0.137192
                    CHANNELS 3 Zrotation Yrotation Xrotation
                    JOINT LeftHandIndex2
                    {
                      OFFSET 6.367095 1e-06 0.0
                      CHANNELS 3 Zrotation Yrotation Xrotation
                      JOINT LeftHandIndex3
                      {
                        OFFSET 3.662364 0.0 0.0
                        CHANNELS 3 Zrotation Yrotation Xrotation
                        JOINT LeftHandIndex4
                        {
                          OFFSET 2.329242 4e-06 -4e-06
                          CHANNELS 3 Zrotation Yrotation Xrotation
                          JOINT LeftHandIndexEnd
                          {
                            OFFSET 2.767823 1e-06 0.0
                            CHANNELS 3 Zrotation Yrotation Xrotation
                          }
                        }
                      }
                    }
                  }
                  JOINT LeftHandMiddle1
                  {
                    OFFSET 3.163612 0.945023 -0.406112
                    CHANNELS 3 Zrotation Yrotation Xrotation
                    JOINT LeftHandMiddle2
                    {
                      OFFSET 6.276789 3e-06 0.0
                      CHANNELS 3 Zrotation Yrotation Xrotation
                      JOINT LeftHandMiddle3
                      {
                        OFFSET 4.35652 -1e-06 4e-06
                        CHANNELS 3 Zrotation Yrotation Xrotation
                        JOINT LeftHandMiddle4
                        {
                          OFFSET 2.996877 0.0 8e-06
                          CHANNELS 3 Zrotation Yrotation Xrotation
                          JOINT LeftHandMiddleEnd
                          {
                            OFFSET 2.323256 3e-06 -4e-06
                            CHANNELS 3 Zrotation Yrotation Xrotation
                          }
                        }
                      }
                    }
                  }
                  JOINT LeftHandRing1
                  {
                    OFFSET 2.882606 -0.309162 0.107445
                    CHANNELS 3 Zrotation Yrotation Xrotation
                    JOINT LeftHandRing2
                    {
                      OFFSET 6.033198 0.0 4e-06
                      CHANNELS 3 Zrotation Yrotation Xrotation
                      JOINT LeftHandRing3
                      {
                        OFFSET 4.350578 3e-06 0.0
                        CHANNELS 3 Zrotation Yrotation Xrotation
                        JOINT LeftHandRing4
                        {
                          OFFSET 2.651321 2e-06 -7e-06
                          CHANNELS 3 Zrotation Yrotation Xrotation
                          JOINT LeftHandRingEnd
                          {
                            OFFSET 1.937663 1e-06 -4e-06
                            CHANNELS 3 Zrotation Yrotation Xrotation
                          }
                        }
                      }
                    }
                  }
                  JOINT LeftHandPinky1
                  {
                    OFFSET 2.865315 -1.525436 0.575687
                    CHANNELS 3 Zrotation Yrotation Xrotation
                    JOINT LeftHandPinky2
                    {
                      OFFSET 5.54936 1e-06 -8e-06
                      CHANNELS 3 Zrotation Yrotation Xrotation
                      JOINT LeftHandPinky3
                      {
                        OFFSET 3.070974 0.0 -4e-06
                        CHANNELS 3 Zrotation Yrotation Xrotation
                        JOINT LeftHandPinky4
                        {
                          OFFSET 1.549672 1e-06 0.0
                          CHANNELS 3 Zrotation Yrotation Xrotation
                          JOINT LeftHandPinkyEnd
                          {
                            OFFSET 1.952123 0.0 0.0
                            CHANNELS 3 Zrotation Yrotation Xrotation
                          }
                        }
                      }
                    }
                  }
                }
              }
            }
          }
          JOINT RightShoulder
          {
            OFFSET 23.161716 5.296122 -1.380114
            CHANNELS 3 Zrotation Yrotation Xrotation
            JOINT RightArm
            {
              OFFSET -16.027195 -2e-06 1.1e-05
              CHANNELS 3 Zrotation Yrotation Xrotation
              JOINT RightForeArm
              {
                OFFSET -28.736639 4e-06 2e-06
                CHANNELS 3 Zrotation Yrotation Xrotation
                JOINT RightHand
                {
                  OFFSET -27.133619 6e-06 0.0
                  CHANNELS 3 Zrotation Yrotation Xrotation
                  JOINT RightHandThumb1
                  {
                    OFFSET -2.274328 -3.351035 -0.83067
                    CHANNELS 3 Zrotation Yrotation Xrotation
                    JOINT RightHandThumb2
                    {
                      OFFSET -4.703594 -3e-06 2e-06
                      CHANNELS 3 Zrotation Yrotation Xrotation
                      JOINT RightHandThumb3
                      {
                        OFFSET -2.794935 -4e-06 -3e-06
                        CHANNELS 3 Zrotation Yrotation Xrotation
                        JOINT RightHandThumbEnd
                        {
                          OFFSET -3.183852 4e-06 1e-06
                          CHANNELS 3 Zrotation Yrotation Xrotation
                        }
                      }
                    }
                  }
                  JOINT RightHandIndex1
                  {
                    OFFSET -3.253496 -2.33755 -0.127667
                    CHANNELS 3 Zrotation Yrotation Xrotation
                    JOINT RightHandIndex2
                    {
                      OFFSET -6.344434 0.0 0.0
                      CHANNELS 3 Zrotation Yrotation Xrotation
                      JOINT RightHandIndex3
                      {
                        OFFSET -3.654871 0.0 -8e-06
                        CHANNELS 3 Zrotation Yrotation Xrotation
                        JOINT RightHandIndex4
                        {
                          OFFSET -2.327586 -1e-06 0.0
                          CHANNELS 3 Zrotation Yrotation Xrotation
                          JOINT RightHandIndexEnd
                          {
                            OFFSET -2.770001 3e-06 8e-06
                            CHANNELS 3 Zrotation Yrotation Xrotation
                          }
                        }
                      }
                    }
                  }
                  JOINT RightHandMiddle1
                  {
                    OFFSET -3.168223 -0.944764 0.411762
                    CHANNELS 3 Zrotation Yrotation Xrotation
                    JOINT RightHandMiddle2
                    {
                      OFFSET -6.266691 -1e-06 -4e-06
                      CHANNELS 3 Zrotation Yrotation Xrotation
                      JOINT RightHandMiddle3
                      {
                        OFFSET -4.348901 0.0 0.0
                        CHANNELS 3 Zrotation Yrotation Xrotation
                        JOINT RightHandMiddle4
                        {
                          OFFSET -3.00024 2e-06 -4e-06
                          CHANNELS 3 Zrotation Yrotation Xrotation
                          JOINT RightHandMiddleEnd
                          {
                            OFFSET -2.321477 -4e-06 -4e-06
                            CHANNELS 3 Zrotation Yrotation Xrotation
                          }
                        }
                      }
                    }
                  }
                  JOINT RightHandRing1
                  {
                    OFFSET -2.885654 0.293261 -0.119232
                    CHANNELS 3 Zrotation Yrotation Xrotation
                    JOINT RightHandRing2
                    {
                      OFFSET -6.032835 -1e-06 -4e-06
                      CHANNELS 3 Zrotation Yrotation Xrotation
                      JOINT RightHandRing3
                      {
                        OFFSET -4.33881 0.0 -4e-06
                        CHANNELS 3 Zrotation Yrotation Xrotation
                        JOINT RightHandRing4
                        {
                          OFFSET -2.654903 -4e-06 -4e-06
                          CHANNELS 3 Zrotation Yrotation Xrotation
                          JOINT RightHandRingEnd
                          {
                            OFFSET -1.935122 0.0 4e-06
                            CHANNELS 3 Zrotation Yrotation Xrotation
                          }
                        }
                      }
                    }
                  }
                  JOINT RightHandPinky1
                  {
                    OFFSET -2.866241 1.503904 -0.60527
                    CHANNELS 3 Zrotation Yrotation Xrotation
                    JOINT RightHandPinky2
                    {
                      OFFSET -5.553177 -2e-06 0.0
                      CHANNELS 3 Zrotation Yrotation Xrotation
                      JOINT RightHandPinky3
                      {
                        OFFSET -3.062664 -1e-06 -4e-06
                        CHANNELS 3 Zrotation Yrotation Xrotation
                        JOINT RightHandPinky4
                        {
                          OFFSET -1.546529 2e-06 4e-06
                          CHANNELS 3 Zrotation Yrotation Xrotation
                          JOINT RightHandPinkyEnd
                          {
                            OFFSET -1.952341 0.0 -4e-06
                            CHANNELS 3 Zrotation Yrotation Xrotation
                          }
                        }
                      }
                    }
                  }
                }
              }
            }
          }
        }
      }
    }
    JOINT LeftLeg
    {
      OFFSET -8.443107 2.567604 10.043214
      CHANNELS 3 Zrotation Yrotation Xrotation
      JOINT LeftShin
      {
        OFFSET 43.229198 1e-06 -1e-06
        CHANNELS 3 Zrotation Yrotation Xrotation
        JOINT LeftFoot
        {
          OFFSET 42.298611 1e-06 1e-06
          CHANNELS 3 Zrotation Yrotation Xrotation
          JOINT LeftToeBase
          {
            OFFSET 14.165858 1e-06 0.0
            CHANNELS 3 Zrotation Yrotation Xrotation
            JOINT LeftToeEnd
            {
              OFFSET 6.7141 -0.234461 0.0
              CHANNELS 3 Zrotation Yrotation Xrotation
            }
          }
        }
      }
    }
    JOINT RightLeg
    {
      OFFSET -8.303923 2.592729 -10.047278
      CHANNELS 3 Zrotation Yrotation Xrotation
      JOINT RightShin
      {
        OFFSET -43.369682 0.0 1e-06
        CHANNELS 3 Zrotation Yrotation Xrotation
        JOINT RightFoot
        {
          OFFSET -42.260784 4e-06 2e-06
          CHANNELS 3 Zrotation Yrotation Xrotation
          JOINT RightToeBase
          {
            OFFSET -14.222245 -2e-06 -1e-06
            CHANNELS 3 Zrotation Yrotation Xrotation
            JOINT RightToeEnd
            {
              OFFSET -6.660062 0.232574 -2e-06
              CHANNELS 3 Zrotation Yrotation Xrotation
            }
          }
        }
      }
    }
  }
}
MOTION
Frames: 4
Frame Time: 0.03333333333333333
0.0 0.0 0.0 0.0 -0.0 0.0 0.062984 99.630096 2.062107 90.600395 2.324075 90.777344 -2.632454 0.263724 0.227686 -11.925829 -0.553006 0.41825 16.661137 -0.340298 -2.185244 18.015123 0.175794 2.450106 -2.466063 -0.293287 1.733302 -25.823473 0.118829 0.492688 6e-06 -0.0 -0.0 0.03416 0.012145 0.02531 0.016887 0.065003 0.004362 0.020248 -0.044431 0.055806 -119.827751 -80.598427 137.360886 26.977633 -32.270542 -39.167309 47.389854 0.524611 -0.544534 2.3127 10.969471 -100.823334 17.636633 -26.322737 52.411213 -19.466665 -14.395602 29.410395 0.0 -8.774824 -1e-06 16.112955 -17.610476 6.176285 -0.609775 -1.795652 -3.889328 -4.807091 -11.046813 -2.93785 3e-06 -20.976021 1e-06 -5.019975 -25.03356 -4.031876 7e-06 -2e-06 1e-06 -10.634535 -5.686972 -3.565587 10.573278 -17.922955 -3.113902 2e-06 -13.821213 4e-06 -0.501778 -31.181511 -4.027018 -11.065977 -59.205086 6.718711 -13.982716 -7.150198 -2.875041 13.772731 -8.401493 -3.218243 0.347729 -34.211555 0.771658 -0.963031 -17.733372 2.621023 -1e-06 -0.0 -0.0 -17.346426 -20.095224 -4.20178 21.757566 -1.638374 3.866428 2e-06 -6.338824 0.0 -1.697591 -22.591751 -6.194008 -0.0 -3e-06 -1e-06 27.219955 -77.460739 174.004272 24.293539 -27.430513 -46.469604 53.816097 -0.29616 0.372862 -3.08954 19.321701 -89.025352 22.182117 -20.3759 49.933327 -16.701817 -16.743532 28.476536 -3e-06 -12.690603 0.0 16.639174 -17.549398 3.19731 -0.105919 -1.513856 -4.275882 -5.039042 -5.61287 -2.953557 4e-06 -11.020525 -2e-06 -6.111297 -15.895334 -3.840473 1e-06 1e-06 1e-06 -10.283371 -5.680285 -4.341838 11.028299 -11.302406 -2.372635 -1.384269 -14.238583 -6.32012 -0.625434 -26.924194 -3.8276 -4.863178 -50.635746 -2.521039 -13.708527 -7.363475 -3.720939 18.141151 -14.052745 -3.242674 8e-06 -18.787271 -2e-06 -0.429714 -8.456047 2.555505 2e-06 0.0 0.0 -15.923538 -20.094482 -5.473586 30.419222 -7.190829 1.735926 2e-06 -8.162925 0.0 -1.8619 -22.861475 -6.167941 -0.0 -3e-06 -2e-06 174.577316 -4.137426 -11.173912 18.081205 -0.033925 0.137932 -78.811852 2.828784 -3.238185 -7.17361 1.555855 2.102539 -0.999999 -0.0 0.0 -6.377742 -6.101014 -11.85072 19.39259 0.016909 -0.071662 -78.692261 -0.88805 -6.079455 -6.973466 0.645279 1.620244 -1.000003 0.0 -0.0 
0.0 0.0 0.0 0.0 -0.0 0.0 0.191261 99.64164 1.961836 90.613159 2.136066 90.701271 -2.587822 0.242946 0.231828 -11.921483 -0.533525 0.42089 16.655117 -0.332733 -2.200435 17.833055 0.161033 2.437726 -2.468207 -0.300315 1.772647 -26.270777 0.05994 0.528498 6e-06 0.0 -0.0 0.032555 0.017841 0.041578 0.023201 0.064695 0.019335 0.023878 -0.032558 0.07382 -119.790726 -80.557289 137.389862 26.823483 -32.743832 -39.043285 47.638218 0.40261 -0.522769 2.250644 10.710052 -99.599953 17.636625 -26.322729 52.411198 -19.466665 -14.395602 29.410395 1e-06 -8.774824 -1e-06 16.107138 -17.584312 6.185677 -0.609777 -1.795654 -3.889328 -4.807088 -11.046811 -2.937849 3e-06 -20.976021 -1e-06 -5.019972 -25.033562 -4.031883 7e-06 -0.0 2e-06 -10.634534 -5.686971 -3.565588 10.573272 -17.922951 -3.113904 2e-06 -13.821211 2e-06 -0.501779 -31.181505 -4.02702 -11.14253 -59.270489 6.783348 -13.982717 -7.1502 -2.87504 13.772733 -8.401493 -3.218243 0.347734 -34.211559 0.771653 -0.963028 -17.733376 2.621019 -2e-06 1e-06 1e-06 -17.346424 -20.095222 -4.201782 21.757561 -1.638373 3.866428 -1e-06 -6.338825 1e-06 -1.697589 -22.591745 -6.194007 -1e-06 -4e-06 -2e-06 28.021107 -77.426277 173.313461 23.986471 -28.035179 -45.788208 54.54903 -0.33482 0.393681 -3.588073 19.361168 -88.584778 22.182121 -20.37591 49.933327 -16.701817 -16.743532 28.47654 -3e-06 -12.690604 -2e-06 16.577925 -17.509741 3.242553 -0.10592 -1.513856 -4.275885 -5.039042 -5.612873 -2.953554 4e-06 -11.020524 -0.0 -6.111299 -15.895336 -3.840469 0.0 0.0 0.0 -10.283375 -5.680291 -4.34184 11.028297 -11.302407 -2.372633 -1.384269 -14.238583 -6.320121 -0.625438 -26.924191 -3.827604 -4.858064 -50.679924 -2.520713 -13.70853 -7.363479 -3.720939 18.141151 -14.05274 -3.242675 7e-06 -18.787271 0.0 -0.429712 -8.456047 2.555505 2e-06 -0.0 -2e-06 -15.923539 -20.094484 -5.473585 30.419222 -7.190827 1.735927 2e-06 -8.162927 -0.0 -1.861903 -22.861473 -6.167942 0.0 -4e-06 -2e-06 174.311768 -4.019529 -11.132407 18.108988 -0.035898 0.13029 -78.776688 2.663292 -3.187976 -7.208832 1.55844 2.099089 -1.0 -0.0 0.0 -6.639895 -6.196735 -11.779838 19.35092 0.012807 -0.062599 -78.566055 -0.820526 -6.140514 -7.003704 0.656156 1.620458 -1.000001 -0.0 -0.0 
0.0 0.0 0.0 0.0 -0.0 0.0 0.320039 99.652748 1.885371 90.627068 1.940339 90.650391 -2.554844 0.217811 0.225634 -11.934763 -0.524218 0.417395 16.652685 -0.333026 -2.218824 17.658281 0.162118 2.432276 -2.474108 -0.307747 1.81944 -26.762119 -0.030997 0.599157 6e-06 -0.0 0.0 0.032602 0.022764 0.054135 0.025071 0.063897 0.030366 0.021479 -0.02166 0.088109 -119.749763 -80.496765 137.419144 26.683689 -33.24556 -38.910213 47.95797 0.276824 -0.495985 2.157447 10.45221 -98.130043 17.636633 -26.322729 52.411194 -19.466656 -14.395597 29.410381 1e-06 -8.774821 -2e-06 16.096085 -17.581497 6.19592 -0.609776 -1.795654 -3.889327 -4.807091 -11.046813 -2.937851 2e-06 -20.976019 -0.0 -5.019972 -25.033556 -4.031881 5e-06 0.0 2e-06 -10.634533 -5.686972 -3.565588 10.573272 -17.922951 -3.113901 1e-06 -13.821212 3e-06 -0.501779 -31.181505 -4.027017 -11.213509 -59.32225 6.842239 -13.982718 -7.150201 -2.875043 13.772731 -8.401491 -3.218241 0.347726 -34.211555 0.771657 -0.963029 -17.733372 2.621019 -1e-06 1e-06 2e-06 -17.346424 -20.095221 -4.201778 21.757565 -1.638372 3.866429 -0.0 -6.338824 -2e-06 -1.697592 -22.591749 -6.194005 2e-06 -6e-06 -1e-06 28.918032 -77.340034 172.539871 23.579058 -28.750807 -44.88332 55.273849 -0.324182 0.433256 -4.147331 19.426401 -88.279961 22.182116 -20.375898 49.933327 -16.701815 -16.743536 28.476534 -4e-06 -12.690605 1e-06 16.514729 -17.492064 3.262073 -0.105918 -1.513856 -4.275883 -5.03904 -5.61287 -2.953555 3e-06 -11.020523 -3e-06 -6.111293 -15.895329 -3.840474 0.0 1e-06 -0.0 -10.283372 -5.680288 -4.341839 11.028295 -11.302406 -2.372636 -1.38427 -14.238578 -6.320122 -0.625438 -26.924191 -3.827602 -4.826128 -50.621437 -2.537124 -13.708527 -7.363477 -3.720941 18.14115 -14.052739 -3.242676 6e-06 -18.787266 -2e-06 -0.429714 -8.456042 2.555505 3e-06 -1e-06 -1e-06 -15.923538 -20.094482 -5.473587 30.419218 -7.190827 1.735927 1e-06 -8.162925 -0.0 -1.861901 -22.861471 -6.167942 -2e-06 -2e-06 -2e-06 174.039108 -3.903176 -11.082131 18.138353 -0.037793 0.116671 -78.743835 2.501842 -3.130577 -7.220515 1.55513 2.09414 -0.999998 -0.0 0.0 -6.892619 -6.299559 -11.750646 19.308784 0.008514 -0.059789 -78.455002 -0.708343 -6.183599 -7.012302 0.665142 1.620963 -1.000001 -0.0 -0.0 
0.0 0.0 0.0 0.0 -0.0 0.0 0.447845 99.661911 1.829934 90.644119 1.752907 90.609207 -2.544016 0.185385 0.212811 -11.950769 -0.528446 0.402965 16.648142 -0.34221 -2.231814 17.490732 0.161572 2.444755 -2.493101 -0.306635 1.851637 -27.207294 -0.117996 0.710533 6e-06 -0.0 -0.0 0.031361 0.024545 0.052919 0.019216 0.061691 0.028081 0.013253 -0.01576 0.087953 -119.745918 -80.399414 137.507797 26.598873 -33.762276 -38.841888 48.321014 0.161799 -0.489786 2.054222 10.251462 -96.631165 17.636629 -26.322752 52.411224 -19.466665 -14.395602 29.410398 -1e-06 -8.774824 -1e-06 16.079201 -17.588467 6.197894 -0.609778 -1.795654 -3.889328 -4.807091 -11.046813 -2.937851 5e-06 -20.976021 0.0 -5.01997 -25.03356 -4.03188 6e-06 1e-06 0.0 -10.634538 -5.686974 -3.565588 10.573275 -17.922955 -3.113901 1e-06 -13.821214 3e-06 -0.501782 -31.181511 -4.027014 -11.254098 -59.355179 6.879093 -13.982716 -7.150201 -2.875043 13.772733 -8.401494 -3.218242 0.347732 -34.211559 0.771657 -0.963032 -17.733376 2.621023 -0.0 1e-06 1e-06 -17.346424 -20.095222 -4.20178 21.757563 -1.638375 3.866429 1e-06 -6.338825 -1e-06 -1.697593 -22.591751 -6.194003 0.0 -3e-06 -2e-06 29.720999 -77.199112 171.836029 23.037386 -29.567287 -43.82362 55.969765 -0.316985 0.469832 -4.805426 19.519987 -88.016991 22.182106 -20.3759 49.933323 -16.701811 -16.74353 28.476532 -4e-06 -12.690599 0.0 16.451685 -17.495855 3.258815 -0.105922 -1.513858 -4.27588 -5.039036 -5.612868 -2.953555 4e-06 -11.020523 -2e-06 -6.111296 -15.89533 -3.840469 1e-06 -0.0 -1e-06 -10.283367 -5.680285 -4.341838 11.028292 -11.302409 -2.372632 -1.384268 -14.238578 -6.320121 -0.625438 -26.924189 -3.827601 -4.770437 -50.493183 -2.573931 -13.708525 -7.363476 -3.720938 18.14115 -14.052739 -3.242676 6e-06 -18.78727 -2e-06 -0.429716 -8.456041 2.555505 3e-06 0.0 -2e-06 -15.923532 -20.094479 -5.473582 30.41921 -7.190827 1.735924 2e-06 -8.162925 -1e-06 -1.861902 -22.861467 -6.167938 -1e-06 -2e-06 -2e-06 173.787064 -3.79557 -11.055183 18.171171 -0.039103 0.106698 -78.723 2.378269 -3.089758 -7.226071 1.541653 2.088814 -0.999999 -0.0 0.0 -7.12715 -6.399371 -11.720675 19.277256 0.003744 -0.067542 -78.36705 -0.60112 -6.215287 -7.002415 0.66858 1.62142 -1.000001 0.0 0.0 
